#!OML:ASF F:\VICON\USERDATA\INSTALL\rory3\rory3.ASF
:FULLY-SPECIFIED
:DEGREES
298
root -1.56664 16.657 -0.976981 14.2413 17.3488 -0.897906
lowerback 22.4651 -0.178326 -3.42067
upperback 6.39618 -0.777092 1.6756
thorax -5.4474 -0.338714 3.97359
lowerneck -11.7295 -7.36221 -13.0324
upperneck 14.3729 -9.4596 11.1118
head 7.5077 -4.34976 4.78079
rclavicle 3.83157e-014 8.94531e-016
rhumerus -14.0515 31.0443 -87.5281
rradius 49.5854
rwrist 30.2702
rhand -26.9187 2.92946
rfingers 7.12502
rthumb -0.341567 -27.05
lclavicle 3.83157e-014 8.94531e-016
lhumerus -15.9938 -35.4292 90.7496
lradius 40.7628
lwrist -12.182
lhand -17.7254 16.4799
lfingers 7.12502
lthumb 8.53532 46.2874
rfemur -51.3417 -6.98246 15.9443
rtibia 32.6121
rfoot 1.53566 -13.0155
rtoes 10.803
lfemur -40.1432 2.91396 -18.8676
ltibia 54.5813
lfoot -24.9674 -2.9161
ltoes -17.1129
299
root -1.52567 16.6638 -1.02649 13.7247 16.9948 -0.99029
lowerback 22.3326 -0.0807321 -3.53608
upperback 6.32494 -0.67677 1.67297
thorax -5.46462 -0.289405 4.00906
lowerneck -11.8561 -7.61451 -13.0689
upperneck 14.1956 -9.8094 11.3071
head 7.5305 -4.5003 4.80237
rclavicle 2.18166e-014 -4.47266e-015
rhumerus -14.1507 30.8953 -87.6139
rradius 49.0999
rwrist 29.6905
rhand -26.4528 3.20107
rfingers 7.12502
rthumb 0.108408 -26.7786
lclavicle 2.18166e-014 -4.47266e-015
lhumerus -16.253 -35.7121 90.9605
lradius 40.6205
lwrist -12.1075
lhand -17.6012 16.9817
lfingers 7.12502
lthumb 8.65521 46.7842
rfemur -50.6578 -6.82548 15.8706
rtibia 32.0689
rfoot 0.916906 -13.0695
rtoes 10.1541
lfemur -39.6639 3.0891 -19.0278
ltibia 54.5191
lfoot -24.8457 -2.73624
ltoes -16.8581
300
root -1.48635 16.6729 -1.07671 13.2629 16.6268 -0.999228
lowerback 22.1656 0.008625 -3.72377
upperback 6.30673 -0.600335 1.66586
thorax -5.40294 -0.253964 4.08612
lowerneck -11.9273 -7.95688 -13.1097
upperneck 13.8641 -10.2736 11.4874
head 7.50888 -4.70974 4.80394
rclavicle -6.06293e-015 1.10325e-014
rhumerus -14.1528 30.7506 -87.6422
rradius 48.653
rwrist 29.2438
rhand -26.3283 3.20783
rfingers 7.12502
rthumb 0.228688 -26.7718
lclavicle -6.06293e-015 1.10325e-014
lhumerus -16.3334 -35.861 91.0979
lradius 40.4102
lwrist -11.9223
lhand -17.3986 16.9638
lfingers 7.12502
lthumb 8.85067 46.7582
rfemur -50.0041 -6.75902 15.7695
rtibia 31.5506
rfoot 0.122661 -12.9404
rtoes 9.43825
lfemur -39.1946 3.27329 -19.2741
ltibia 54.4243
lfoot -24.7186 -2.56524
ltoes -16.8269
301
root -1.44741 16.6833 -1.12949 12.812 16.2384 -1.04259
lowerback 22.0596 0.0744154 -3.82845
upperback 6.27768 -0.539898 1.63143
thorax -5.38491 -0.22519 4.09151
lowerneck -11.9915 -8.23387 -13.1259
upperneck 13.4753 -10.6562 11.715
head 7.45908 -4.87667 4.82763
rclavicle -5.53615e-014 -7.35503e-015
rhumerus -14.1632 30.4276 -87.778
rradius 48.2945
rwrist 28.617
rhand -26.2344 3.4889
rfingers 7.12502
rthumb 0.319341 -26.4906
lclavicle -5.53615e-014 -7.35503e-015
lhumerus -16.478 -36.0953 91.2032
lradius 40.3139
lwrist -11.5398
lhand -16.7213 17.2141
lfingers 7.12502
lthumb 9.50428 46.9797
rfemur -49.414 -6.68013 15.7158
rtibia 31.1314
rfoot -0.535431 -12.7112
rtoes 6.7039
lfemur -38.7474 3.54536 -19.4937
ltibia 54.3221
lfoot -24.605 -2.44267
ltoes -16.5921
302
root -1.41046 16.6885 -1.17975 12.3578 15.8347 -1.11933
lowerback 22.0123 0.16646 -3.94989
upperback 6.18665 -0.449699 1.63254
thorax -5.46681 -0.17848 4.13963
lowerneck -11.9851 -8.42424 -13.2213
upperneck 13.1637 -10.9289 12.0053
head 7.41676 -4.99267 4.90216
rclavicle 2.68359e-014 -3.18055e-015
rhumerus -14.3205 29.9758 -87.9084
rradius 48.038
rwrist 27.8749
rhand -25.8038 4.00934
rfingers 7.12502
rthumb 0.735203 -25.9691
lclavicle 2.68359e-014 -3.18055e-015
lhumerus -16.8677 -36.1612 91.4564
lradius 40.3657
lwrist -11.5196
lhand -16.6667 17.4709
lfingers 7.12502
lthumb 9.5569 47.2341
rfemur -48.8707 -6.63232 15.7303
rtibia 30.7954
rfoot -1.30176 -12.4159
rtoes 3.38503
lfemur -38.2924 3.74605 -19.6462
ltibia 54.2146
lfoot -24.478 -2.23534
ltoes -16.5497
303
root -1.37726 16.6944 -1.22559 11.8535 15.5091 -1.20166
lowerback 22.0533 0.2485 -4.07884
upperback 6.08278 -0.375045 1.65858
thorax -5.60645 -0.13717 4.22502
lowerneck -11.9959 -8.58423 -13.2308
upperneck 12.9016 -11.1533 12.1615
head 7.37461 -5.09088 4.92389
rclavicle -9.64106e-015 -8.84592e-015
rhumerus -14.497 29.5052 -88.0137
rradius 47.7036
rwrist 27.5569
rhand -25.4122 4.4363
rfingers 7.12502
rthumb 1.11347 -25.5405
lclavicle -9.64106e-015 -8.84592e-015
lhumerus -17.2549 -36.1143 91.7076
lradius 40.3302
lwrist -11.5731
lhand -17.2018 17.1488
lfingers 7.12502
lthumb 9.04061 46.9351
rfemur -48.253 -6.65639 15.783
rtibia 30.5112
rfoot -2.41161 -12.1931
rtoes 2.15127
lfemur -37.7637 3.80688 -19.7328
ltibia 54.0828
lfoot -24.3701 -1.99668
ltoes -16.4193
